<svg width="22" height="25" viewBox="0 0 22 25" fill="none" xmlns="http://www.w3.org/2000/svg">
<path d="M0.62435 5.94078H4.52654C4.69212 5.94077 4.85092 5.87699 4.96801 5.76345C5.0851 5.64991 5.15088 5.49592 5.15089 5.33535V0.60543C5.15088 0.444862 5.0851 0.290874 4.96801 0.177335C4.85092 0.0637969 4.69212 8.02778e-06 4.52654 0H0.62435C0.458764 8.02778e-06 0.299964 0.0637969 0.182877 0.177335C0.0657905 0.290874 8.27865e-06 0.444862 0 0.60543V5.33535C8.27865e-06 5.49592 0.0657905 5.64991 0.182877 5.76345C0.299964 5.87699 0.458764 5.94077 0.62435 5.94078ZM1.2487 1.21086H3.90219V4.72992H1.2487V1.21086Z" fill="#6A6E71"/>
<path d="M0.62435 12.3924H17.2086C17.3742 12.3924 17.533 12.3286 17.6501 12.215C17.7672 12.1015 17.833 11.9475 17.833 11.787V7.05703C17.833 6.89646 17.7672 6.74247 17.6501 6.62893C17.533 6.5154 17.3742 6.45161 17.2086 6.4516H0.62435C0.458764 6.45161 0.299963 6.5154 0.182877 6.62893C0.0657905 6.74247 8.27864e-06 6.89646 0 7.05703V11.787C8.27864e-06 11.9475 0.0657905 12.1015 0.182877 12.215C0.299963 12.3286 0.458764 12.3924 0.62435 12.3924V12.3924ZM1.2487 7.66246H16.5843V11.1815H1.2487V7.66246Z" fill="#6A6E71"/>
<path d="M0.62435 18.844H8.42872C8.59431 18.844 8.75311 18.7802 8.87019 18.6666C8.98728 18.5531 9.05306 18.3991 9.05307 18.2386V13.5086C9.05306 13.3481 8.98728 13.1941 8.87019 13.0805C8.75311 12.967 8.59431 12.9032 8.42872 12.9032H0.62435C0.458764 12.9032 0.299963 12.967 0.182877 13.0805C0.0657905 13.1941 8.27864e-06 13.3481 0 13.5086V18.2386C8.27864e-06 18.3991 0.0657905 18.5531 0.182877 18.6666C0.299963 18.7802 0.458764 18.844 0.62435 18.844V18.844ZM1.2487 14.1141H7.80437V17.6331H1.2487V14.1141Z" fill="#6A6E71"/>
<path d="M21.2634 19.3549H0.510832C0.375353 19.3549 0.245425 19.4155 0.149627 19.5234C0.0538286 19.6313 6.77344e-06 19.7776 0 19.9302V24.4247C6.77344e-06 24.5773 0.0538286 24.7236 0.149627 24.8315C0.245425 24.9394 0.375353 25 0.510832 25H21.2634C21.3988 25 21.5288 24.9394 21.6246 24.8315C21.7204 24.7236 21.7742 24.5773 21.7742 24.4247V19.9302C21.7742 19.7776 21.7204 19.6313 21.6246 19.5234C21.5288 19.4155 21.3988 19.3549 21.2634 19.3549ZM20.7525 23.8494H1.02166V20.5055H20.7525V23.8494Z" fill="#6A6E71"/>
</svg>
