<svg width="27" height="28" viewBox="0 0 27 28" fill="none" xmlns="http://www.w3.org/2000/svg">
<path d="M13.9488 1.11399C13.8267 0.999032 13.6665 0.935 13.4999 0.935C13.3334 0.935 13.1732 0.99903 13.0511 1.11398C13.0511 1.11398 13.0511 1.11398 13.0511 1.11399L1.14817 12.3149C1.0502 12.4071 0.98191 12.5272 0.951983 12.6594C0.922058 12.7915 0.931836 12.9299 0.980082 13.0564C1.02833 13.1829 1.11289 13.2917 1.22291 13.3686L1.25987 13.3157L1.22291 13.3686C1.33296 13.4455 1.46331 13.4868 1.5969 13.4868H3.17811V26.2963C3.17811 26.4749 3.24751 26.6466 3.37149 26.7733C3.49551 26.9002 3.66404 26.9717 3.84007 26.9717H10.4067C10.5827 26.9717 10.7512 26.9002 10.8752 26.7733C10.9992 26.6466 11.0686 26.4749 11.0686 26.2963V20.257H15.8228V26.2963C15.8228 26.4749 15.8922 26.6466 16.0162 26.7733C16.1402 26.9002 16.3088 26.9717 16.4848 26.9717H23.0514C23.2274 26.9717 23.3959 26.9002 23.52 26.7733C23.6439 26.6466 23.7133 26.4749 23.7133 26.2963V13.4868H25.4031C25.5367 13.4868 25.667 13.4455 25.7771 13.3686C25.8871 13.2917 25.9717 13.1829 26.0199 13.0564C26.0682 12.9299 26.0779 12.7915 26.048 12.6594C26.0181 12.5272 25.9498 12.4071 25.8518 12.3149L13.9488 1.11399ZM13.9488 1.11399L13.9043 1.1613L13.9488 1.11398L13.9488 1.11399ZM23.0514 12.1359C22.8753 12.1359 22.7068 12.2075 22.5828 12.3343C22.4588 12.4611 22.3894 12.6327 22.3894 12.8114V25.6208H17.1468V19.5816C17.1468 19.4029 17.0774 19.2312 16.9534 19.1045C16.8294 18.9777 16.6608 18.9061 16.4848 18.9061H10.4067C10.2306 18.9061 10.0621 18.9777 9.93807 19.1045C9.81409 19.2312 9.74469 19.4029 9.74469 19.5816V25.6208H4.50204V12.8114C4.50204 12.7229 4.48499 12.6352 4.45184 12.5534C4.41869 12.4715 4.37006 12.3971 4.30866 12.3343C4.24726 12.2715 4.17429 12.2216 4.09387 12.1876C4.01345 12.1535 3.92721 12.1359 3.84007 12.1359H3.29112L13.5 2.5293L23.7089 12.1359H23.0514Z" fill="#6A6E71" stroke="#6A6E71" stroke-width="0.13"/>
</svg>
