<svg width="20" height="26" viewBox="0 0 20 26" fill="none" xmlns="http://www.w3.org/2000/svg">
<path d="M19.261 4.74446L15.8661 0.84346C15.4042 0.316297 14.7575 0 14.1109 0H1.77829C0.785219 0 0 0.922534 0 2.02958V23.0106C0 24.144 0.808314 25.0402 1.77829 25.0402H18.2217C19.2148 25.0402 20 24.1177 20 23.0106V6.74768C20 5.98329 19.746 5.27162 19.261 4.74446ZM18.5681 23.0106C18.5681 23.2215 18.4065 23.406 18.2217 23.406H1.77829C1.59353 23.406 1.43187 23.2215 1.43187 23.0106V2.02958C1.43187 1.81871 1.59353 1.6342 1.77829 1.6342H14.0878C14.3649 1.6342 14.642 1.76599 14.8499 2.00322L18.2679 5.90422C18.4757 6.14144 18.5912 6.45774 18.5912 6.77404V23.0106H18.5681Z" fill="#6A6E71"/>
<path d="M11.9143 15.525L10.715 16.6449V11.7132C10.715 11.3471 10.3921 11.0456 10 11.0456C9.60792 11.0456 9.28502 11.3471 9.28502 11.7132V16.6449L8.08568 15.525C7.80891 15.2666 7.34763 15.2666 7.07086 15.525C6.79409 15.7834 6.79409 16.2141 7.07086 16.4726L9.4926 18.7338C9.63098 18.863 9.8155 18.9276 10 18.9276C10.1845 18.9276 10.369 18.863 10.5074 18.7338L12.9292 16.4726C13.2059 16.2141 13.2059 15.7834 12.9292 15.525C12.6524 15.2666 12.1911 15.2666 11.9143 15.525Z" fill="#6A6E71"/>
<path d="M14.0596 8.47186H5.97128C5.57842 8.47186 5.25488 8.77213 5.25488 9.13674V11.5603C5.25488 11.9249 5.57842 12.2252 5.97128 12.2252C6.36414 12.2252 6.68767 11.9249 6.68767 11.5603V9.80162H13.3663V11.5603C13.3663 11.9249 13.6899 12.2252 14.0827 12.2252C14.4756 12.2252 14.7991 11.9249 14.7991 11.5603V9.11529C14.776 8.75068 14.4525 8.47186 14.0596 8.47186Z" fill="#6A6E71"/>
</svg>
